<svg xmlns="http://www.w3.org/2000/svg" width="114" height="67"><style>.st0{fill:#FFFFFF;} .st1{opacity:0.6;fill:#FFFFFF;enable-background:new ;} .st2{fill:#A6A8AB;}</style><path d="M23.1 30.1v.8c0 .2 0 .5-.2.6-.1.1-.5.2-.7.2h-2.5c-.2 0-.5-.1-.6-.2-.2-.2-.2-.4-.2-.6 0-.2 0-.4.2-.6.2-.2.6-.2.7-.2h3.3zM15 22.3v3.2h6.4c.5 0 1.1 0 1.4.5.2.3.2.6.2.8v.2h-5.6c-.8 0-1.6 0-2.3.6-1 .8-1.1 2.1-1.1 3.2 0 1 .1 2.7 1 3.6.7.6 1.5.7 2.3.7H25c.7 0 1.6 0 2.2-.7.6-.6.6-1.4.6-2.1V27c0-1-.1-2.6-1.2-3.6-.6-.6-1.6-1.1-3.2-1.1H15zM.7 35.1h9.1c.6 0 1.4-.1 2.1-.6.9-.7 1.1-1.8 1.1-2.7 0-.6 0-1.6-.6-2.5-.6-.9-1.6-1.3-2.9-1.7l-3.2-1.1c-.6-.2-.4-.2-1-.4-.1 0-.3-.1-.3-.3 0-.2.1-.2.2-.2h7.5v-3.3H4.1c-1.3 0-2.3.2-3 1.2-.5.7-.6 1.5-.6 2.3 0 .6.1 1.5.5 2.1.5.8 1.5 1.3 2.6 1.7l2.8.9c1 .3 1.3.4 1.4.5.1 0 .2.1.2.3 0 .1 0 .2-.1.2l-.3.1h-7v3.5zM29.2 35.1h4.7v-8.6c0-.2 0-.5.1-.7.1-.1.2-.2.6-.2h1.8v9.5h4.7v-9.5h.5c.7 0 1.3.3 1.5.6.5.5.5 1.3.5 1.8v7.1h4.7V27c0-1.2-.5-2.6-1.4-3.4-1-.9-2.5-1.3-4-1.3h-11c-1 0-1.9 0-2.5.9-.4.5-.5 1-.5 1.4v10.5zM.7 49.2h9.1c.6 0 1.4-.1 2.1-.6.9-.7 1.1-1.8 1.1-2.7 0-.6 0-1.6-.6-2.5-.6-.9-1.6-1.3-2.9-1.7l-3.2-1.1c-.6-.2-.4-.2-1-.4-.1 0-.3-.1-.3-.3 0-.2.1-.2.2-.2h7.5v-3.3H4.1c-1.3 0-2.3.2-3 1.2-.5.7-.6 1.5-.6 2.3 0 .6.1 1.5.5 2.1.5.8 1.5 1.3 2.6 1.7l2.8.9c1 .3 1.3.4 1.4.5.1 0 .2.1.2.3 0 .1 0 .2-.1.2l-.3.1h-7v3.5zM18.4 42.8c0-1.5.3-2 .5-2.3.2-.3.8-.8 2.1-.8s1.8.5 2.1.8c.2.3.5.9.5 2.3 0 .9-.1 1.7-.5 2.2-.2.3-.8.9-2 .9-1.4 0-2-.7-2.1-.9-.3-.2-.6-.8-.6-2.2m2.6-6.5c-2 0-4.2.1-5.6 1.3-1.6 1.4-1.7 4-1.7 5.2 0 1.3.1 3.8 1.7 5.2 1.4 1.2 3.6 1.3 5.6 1.3s4.2-.1 5.6-1.3c1.6-1.4 1.7-4 1.7-5.2 0-1.3-.1-3.8-1.7-5.2-1.4-1.3-3.7-1.3-5.6-1.3M38.3 36.4v7c0 1.9.3 3.6 1.6 4.7.7.6 1.8 1.1 3.6 1.1h5.8c.5 0 1.4 0 2.1-.6.7-.6.8-1.3.8-2V36.4h-4.7v8.3c0 .2 0 .5-.2.8-.2.2-.4.3-.8.3h-.9c-.6 0-1.5-.1-2-.8-.3-.4-.5-1-.5-2.2v-6.4h-4.8zM63.3 49.2v-3.4h-.7c-.6 0-1.4 0-2.1-.6-.7-.6-.8-1.6-.8-2.6v-2.9h3.6v-3.3h-3.6v-4.1H55v4.1h-1.8v3.3H55v5.5c0 1.2.6 2.4 1.6 3.1 1.3.9 3 .9 4 .9h2.7zM64.7 36.4h4.7v12.8h-4.7zM86.1 49.2h4.7v-8.5c0-.2 0-.5.2-.7.2-.2.5-.2.7-.2h.8c1 0 1.5.2 2 .8.5.6.5 1.3.5 2.2v6.5h4.7v-7.9c0-1.1-.2-2.7-1.6-3.8-1.3-1-2.8-1.1-4.3-1.1h-4.4c-.8 0-2.1 0-2.8.7-.5.5-.5 1.1-.5 1.6v10.4zM101 49.2h9.1c.6 0 1.4-.1 2.1-.6.9-.7 1.1-1.8 1.1-2.7 0-.6-.1-1.6-.6-2.5-.6-.9-1.6-1.3-2.9-1.7l-3.2-1.1c-.6-.2-.4-.2-1-.4-.1 0-.3-.1-.3-.3 0-.2.1-.2.2-.2h7.5v-3.3h-8.5c-1.3 0-2.3.2-3 1.2-.5.7-.6 1.5-.6 2.3 0 .6.1 1.5.5 2.1.5.8 1.5 1.3 2.6 1.7l2.7.9c1 .3 1.3.4 1.4.5.1.1.2.1.2.3 0 .1 0 .2-.1.2l-.3.1h-7l.1 3.5zM37.5 49.2v-3.4h-.7c-.6 0-1.4 0-2.1-.6-.7-.6-.8-1.6-.8-2.6v-6.2h-4.7v8.8c0 1.2.6 2.4 1.6 3.1 1.3.9 3 .9 4 .9h2.7zM75.4 42.8c0-1.5.3-2 .4-2.3.2-.3.8-.8 2.1-.8s1.8.5 2.1.8c.2.3.5.9.5 2.3 0 .9-.1 1.7-.5 2.2-.2.3-.8.9-2 .9-1.4 0-2-.7-2.1-.9-.3-.2-.5-.8-.5-2.2m2.5-6.5c-2 0-4.2.1-5.6 1.3-1.6 1.4-1.7 4-1.7 5.2 0 1.3.1 3.8 1.7 5.2 1.4 1.2 3.6 1.3 5.6 1.3 2 0 4.2-.1 5.6-1.3 1.6-1.4 1.7-4 1.7-5.2 0-1.3-.1-3.8-1.7-5.2-1.4-1.3-3.6-1.3-5.6-1.3" class="st0"/><path d="M45.2 13.6l5.4-2c.9-.3 1.8.1 2.1 1l2 5.4c.3.9-.1 1.8-1 2.1l-5.4 2c-.9.3-1.8-.1-2.1-1l-2-5.4c-.3-.8.2-1.8 1-2.1M73.8 3.2l5.4-2c.9-.3 1.8.1 2.1 1l2 5.4c.3.9-.1 1.8-1 2.1l-5.4 2c-.9.3-1.8-.1-2.1-1l-2-5.4c-.3-.8.1-1.8 1-2.1M82.7 27.7l5.4-2c.9-.3 1.8.1 2.1 1l2 5.4c.3.9-.1 1.8-1 2.1l-5.4 2c-.9.3-1.8-.1-2.1-1l-2-5.4c-.3-.8.1-1.8 1-2.1" class="st1"/><path d="M75.3 27.5l-.3.1-9.1 3.4c-1.4.5-3.1-.2-3.6-1.7l-3-8.3.3-.1 9.2-3.3c1.4-.5 3.1.2 3.6 1.7l2.9 8.2z" class="st0"/><path d="M70.8 13.1c-.3 0-.6.1-1 .2l-9.2 3.3c-1.4.5-2.2 2.1-1.7 3.6l.3.9.3-.1 9.2-3.3c.3-.1.6-.2.9-.2 1.1 0 2.2.7 2.6 1.8l3 8.3c1.3-.6 1.9-2.1 1.4-3.4L73.3 15c-.3-1.2-1.4-1.9-2.5-1.9" class="st1"/><path d="M59.3 21.1c-1.3.6-1.9 2.1-1.4 3.4l3.3 9.2c.4 1.1 1.5 1.8 2.6 1.8.3 0 .6-.1.9-.2L74 32c1.4-.5 2.2-2.1 1.7-3.6l-.3-.9-.3.1-9.2 3.4c-.3.1-.6.2-.9.2-1.1 0-2.2-.7-2.6-1.8l-3.1-8.3z" class="st1"/><path d="M59.3 21.1l3 8.3c.4 1.1 1.5 1.8 2.6 1.8.3 0 .6-.1.9-.2l9.2-3.3-9.1 3.3c-.3.1-.6.2-.9.2-1.1 0-2.2-.7-2.6-1.8l-3.1-8.3z" class="st2"/></svg>